<?xml version="1.0" encoding="utf-8" ?>
<svg xmlns="http://www.w3.org/2000/svg" xmlns:xlink="http://www.w3.org/1999/xlink" width="512" height="512">
	<path d="M360.702 242.661C359.38 251.255 362.351 260.221 352 263.488C346.629 265.182 340.188 264.778 334.621 264.513C334.239 266.902 334.466 269.52 334.465 271.948L334.474 344.064C334.479 350.278 334.488 348.512 342.358 348.515L486.75 348.505C491.015 348.481 503.621 346.212 505.862 351.242L506.004 351.625C511.102 364.353 493.772 362.084 486.43 362.062L486.024 474.064C486.026 497.18 483.773 486.521 500.812 489.639L501.125 489.7C503.862 490.197 506.642 491.387 507.418 494.337L508.099 496.71C506 504.298 501.521 502.861 495.118 502.861L30.0134 502.829C23.983 502.83 17.6518 503.201 11.653 502.76C6.51973 502.383 0.754402 497.111 5.06884 492.274C9.59605 487.199 18.6858 489.294 24.6387 489.539L24.7196 345.015C21.6893 345.266 17.2049 345.641 14.2628 344.873L11.625 344.232C8.25129 343.151 6.14004 341.013 4.49848 337.981C4.72079 327.567 23.1892 330.801 29.6863 330.805L175.486 330.837L175.703 264.412C170.574 265.439 162.593 265.036 157.993 262.845L156.995 262.344C155.161 261.312 153.781 259.394 153.235 257.365L152.909 256C152.496 253.93 152.644 251.78 152.665 249.678L152.738 227.303C152.77 209.983 159.27 213.239 172.425 213.243L302.249 213.241C302.044 209.872 301.914 206.51 302.375 203.151L302.432 202.75C303.784 192.283 313.839 194.734 315.394 198.904L315.508 199.25C316.731 201.407 316.524 203.472 316.545 205.904L316.643 213.248L339.584 213.244C346.692 213.218 354.751 211.428 359.349 218.268C362.071 223.301 360.27 236.495 360.702 242.661Z"/>
	<path fill="#353435" d="M359.349 218.268C362.071 223.301 360.27 236.495 360.702 242.661C360.11 242.548 359.755 242.43 359.352 242.209L359.141 241.532C358.509 238.9 358.663 236.052 358.59 233.364L358.575 222.869C358.639 221.309 358.537 219.654 359.349 218.268Z"/>
	<path fill="#BE8280" d="M358.661 393.199L358.517 487.665L337.614 487.665L337.606 362.764L358.838 362.768L358.661 393.199Z"/>
	<path fill="#A4B65F" d="M156.314 375.912L156.502 345.298L170.401 345.296C171.753 345.296 174.231 344.988 175.434 345.419L175.403 487.633C173.217 487.872 170.863 487.708 168.657 487.706L156.472 487.689L156.383 442.5C156.381 441.678 156.542 440.296 156.318 439.536L156.314 375.912Z"/>
	<path fill="#CC7E7D" d="M167.667 228.827L345.237 228.815L345.237 247.999L167.657 248.041L167.667 228.827Z"/>
	<path fill="#CC7E7D" d="M358.656 362.797L472.439 362.762L472.426 487.716L358.682 487.646L358.659 393.199L358.656 362.797Z"/>
	<path fill="#B1C566" d="M156.319 439.536L156.317 487.699L39.5399 487.657L39.5377 345.375L156.309 345.301L156.314 375.912L156.319 439.536Z"/>
	<path fill="#DCCECD" d="M191.515 264.755L321.472 264.852L321.466 488.195C316.414 487.429 311.056 487.709 305.984 487.707L191.518 487.66L191.515 264.755Z"/>
</svg>
